<?xml version="1.0" encoding="UTF-8"?>
<!DOCTYPE svg PUBLIC "-//W3C//DTD SVG 1.1//EN" "http://www.w3.org/Graphics/SVG/1.1/DTD/svg11.dtd">
<!-- Creator: CorelDRAW X7 -->
<svg xmlns="http://www.w3.org/2000/svg" xml:space="preserve" width="44.0266mm" height="44.0266mm" version="1.1" style="shape-rendering:geometricPrecision; text-rendering:geometricPrecision; image-rendering:optimizeQuality; fill-rule:evenodd; clip-rule:evenodd"
viewBox="0 0 4403 4403"
 xmlns:xlink="http://www.w3.org/1999/xlink">
 <defs>
  <style type="text/css">
   <![CDATA[
    .fil0 {fill:#3CE05A}
    .fil1 {fill:#FEFEFE}
   ]]>
  </style>
 </defs>
 <g id="Layer_x0020_1">
  <metadata id="CorelCorpID_0Corel-Layer"/>
  <g id="_3057234576320">
   <path class="fil0" d="M1407 3138c3,-132 60,-295 54,-420 -6,-106 -259,-597 136,-1026 810,-881 2043,390 1196,1249 -413,420 -898,141 -1003,144 -123,3 -249,49 -383,53zm2112 -577l0 -500c-125,-243 -19,-368 -458,-797 -762,-746 -2148,-177 -2166,1014 -20,1418 1715,1940 2442,752 103,-169 112,-321 182,-469z"/>
   <path class="fil0" d="M2007 2210c91,170 164,221 320,300l105 -115 232 107c-58,562 -1139,-167 -790,-636l128 -7 89 231 -84 120zm-426 746c140,4 200,-52 325,-9 256,87 556,140 807,-120 698,-722 -378,-1752 -1003,-1047 -312,351 -150,686 -110,861 22,96 -21,194 -19,315z"/>
   <path class="fil1" d="M1581 2956c-2,-121 41,-219 19,-315 -40,-175 -202,-510 110,-861 625,-705 1701,325 1003,1047 -251,260 -551,207 -807,120 -125,-43 -185,13 -325,9zm-174 182c134,-4 260,-50 383,-53 105,-3 590,276 1003,-144 847,-859 -386,-2130 -1196,-1249 -395,429 -142,920 -136,1026 6,125 -51,288 -54,420z"/>
   <path class="fil1" d="M2091 2090l-89 -231 -128 7c-349,469 732,1198 790,636l-232 -107 -105 115c-156,-79 -229,-130 -320,-300l84 -120z"/>
  </g>
 </g>
</svg>
